# AST/ASF file generated using VICON BodyLanguage
# -----------------------------------------------
:version 1.10
:name VICON
:units
  mass 1.0
  length 0.45
  angle deg
:documentation
   .ast/.asf automatically generated from VICON data using
   VICON BodyBuilder and BodyLanguage model FoxedUp or BRILLIANT.MOD
:root
   order TX TY TZ RX RY RZ
   axis XYZ
   position 0 0 0  
   orientation 0 0 0 
:bonedata
  begin
     id 1 
     name lhipjoint
     direction 0.567149 -0.783011 0.255413 
     length 2.28399 
     axis 0 0 0  XYZ
  end
  begin
     id 2 
     name lfemur
     direction 0.34202 -0.939693 0  
     length 7.34031  
     axis 0 0 20  XYZ
    dof rx ry rz
    limits (-160.0 20.0)
           (-70.0 70.0)
           (-60.0 70.0)
  end
  begin
     id 3 
     name ltibia
     direction 0.34202 -0.939693 0   
     length 6.9833   
     axis 0 0 20   XYZ
    dof rx
    limits (-10.0 170.0)
  end
  begin
     id 4 
     name lfoot
     direction 0.136498 -0.375025 0.91691   
     length 2.33665   
     axis -90 7.62852e-016 20   XYZ
    dof rx rz
    limits (-45.0 90.0)
           (-70.0 20.0)
  end
  begin
     id 5 
     name ltoes
     direction 1.5367e-011 -4.21617e-011 1   
     length 1.15039   
     axis -90 7.62852e-016 20   XYZ
    dof rx
    limits (-90.0 20.0)
  end
  begin
     id 6 
     name rhipjoint
     direction -0.602854 -0.758518 0.247423   
     length 2.35775  
     axis 0 0 0  XYZ 
  end
  begin
     id 7 
     name rfemur
     direction -0.34202 -0.939693 0   
     length 7.43932   
     axis 0 0 -20   XYZ
    dof rx ry rz
    limits (-160.0 20.0)
           (-70.0 70.0)
           (-70.0 60.0)
  end
  begin
     id 8 
     name rtibia
     direction -0.34202 -0.939693 0   
     length 7.11893   
     axis 0 0 -20   XYZ
    dof rx
    limits (-10.0 170.0)
 end
 begin
     id 9 
     name rfoot
     direction -0.131771 -0.362037 0.922803   
     length 2.53019  
     axis -90 -7.62852e-016 -20   XYZ
    dof rx rz
    limits (-45.0 90.0)
           (-20.0 70.0)
  end
  begin
     id 10 
     name rtoes
     direction -1.53733e-011 -4.21932e-011 1   
     length 1.24596   
     axis -90 -7.62852e-016 -20   XYZ
    dof rx
    limits (-90.0 20.0)
  end
  begin
     id 11 
     name lowerback
     direction 0.0235427 0.999023 -0.0374125   
     length 2.21768   
     axis 0 0 0   XYZ
    dof rx ry rz
    limits (-20.0 45.0)
           (-30.0 30.0)
           (-30.0 30.0)
  end
  begin
     id 12 
     name upperback
     direction 0.0302156 0.996818 -0.073759   
     length 2.20352   
     axis 0 0 0   XYZ
    dof rx ry rz
    limits (-20.0 45.0)
           (-30.0 30.0)
           (-30.0 30.0)
  end
  begin
     id 13 
     name thorax
     direction 0.0187169 0.998235 -0.0563532   
     length 2.22103   
     axis 0 0 0   XYZ
    dof rx ry rz
    limits (-20.0 45.0)
           (-30.0 30.0)
           (-30.0 30.0)
  end
  begin
     id 14 
     name lowerneck
     direction -0.119528 0.987423 0.103481   
     length 1.72948   
     axis 0 0 0   XYZ
    dof rx ry rz
    limits (-20.0 45.0)
           (-30.0 30.0)
           (-30.0 30.0)
  end
  begin
     id 15 
     name upperneck
     direction 0.248049 0.963095 -0.104496   
     length 1.74979   
     axis 0 0 0   XYZ
    dof rx ry rz
    limits (-20.0 45.0)
           (-30.0 30.0)
           (-30.0 30.0)
  end
  begin
     id 16
     name head
     direction 0.0903589 0.994284 -0.056876  
     length 1.78268  
     axis 0 0 0   XYZ
    dof rx ry rz
    limits (-20.0 45.0)
           (-30.0 30.0)
           (-30.0 30.0)
  end
  begin
     id 17 
     name lclavicle
     direction 0.946008 0.242039 -0.215608  
     length 3.80783  
     axis 0 0 0   XYZ
    dof ry rz
    limits (-20.0 10.0)
           (0.0 20.0)
  end
  begin
     id 18 
     name lhumerus
     direction 1 -4.48991e-011 -2.25695e-027   
     length 4.83125   
     axis 180 -30 -90   XYZ
    dof rx ry rz
    limits (-60.0 90.0)
           (-90.0 90.0)
           (-90.0 90.0)
  end
  begin
     id 19
     name lradius
     direction 0.999991 0.00366712 -0.00211721   
     length 3.00391   
     axis 180 -30 -90   XYZ
    dof rx
    limits (-10.0 170.0)
  end
  begin
     id 20
     name lwrist
     direction 0.999991 0.00393016 -0.00141978   
     length 1.50195   
     axis -1.00488e-014 90 90   XYZ
    dof ry
    limits (-180.0 0.0)
 end
  begin
     id 21 
     name lhand
     direction 1 -4.49123e-011 2.72098e-026   
     length 1.2717   
     axis -1.73687e-014 90 90   XYZ
    dof rx rz
    limits (-90.0 90.0)
           (-45.0 45.0)
  end
  begin
     id 22 
     name lfingers
     direction 1 -4.48678e-011 5.4479e-026   
     length 1.02528   
     axis -3.47372e-014 90 90   XYZ
    dof rx
    limits (0.0 90.0)
  end
  begin
     id 23
     name lthumb
     direction 0.707107 -6.34851e-011 0.707107   
     length 1.4721   
     axis -90 45 -1.62303e-014   XYZ
    dof rx rz
    limits (-45.0 45.0)
           (-45.0 45.0)
  end
  begin
     id 24 
     name rclavicle
     direction -0.981723 0.189447 -0.0181673   
     length 3.74989  
     axis 0 0 0   XYZ 
    dof ry rz
    limits (-10.0 20.0)
           (-20.0 0.0)
  end
  begin
     id 25 
     name rhumerus
     direction -1 -4.48985e-011 2.38206e-027  
     length 4.61118   
     axis 180 30 90   XYZ
    dof rx ry rz
    limits (-90.0 60.0)
           (-90.0 90.0)
           (-90.0 90.0)
  end
  begin
     id 26 
     name rradius
     direction -1 -4.48977e-011 7.41019e-027   
     length 2.91491   
     axis 180 30 90   XYZ
    dof rx
    limits (-10.0 170.0)
  end
  begin
     id 27 
     name rwrist
     direction -1 -4.48549e-011 1.3624e-026   
     length 1.45745   
     axis -1.00488e-014 -90 -90   XYZ
    dof ry
    limits (-180.0 0.0)
  end
  begin
     id 28
     name rhand
     direction -1 -4.49107e-011 2.72109e-026   
     length 1.30769   
     axis -1.73687e-014 -90 -90   XYZ
    dof rx rz
    limits (-90.0 90.0)
           (-45.0 45.0)
  end
  begin
     id 29
     name rfingers
     direction -1 -4.48919e-011 5.44468e-026   
     length 1.05429   
     axis -3.47372e-014 -90 -90   XYZ
    dof rx
    limits (0.0 90.0)
  end
  begin
     id 30
     name rthumb
     direction -0.707107 -6.35315e-011 0.707107   
     length 1.51376   
     axis -90 -45 1.62303e-014   XYZ
    dof rx rz
    limits (-45.0 45.0)
           (-45.0 45.0)
  end
:hierarchy
  begin
    root lhipjoint rhipjoint lowerback
    lhipjoint lfemur
    lfemur ltibia
    ltibia lfoot
    lfoot ltoes
    rhipjoint rfemur
    rfemur rtibia
    rtibia rfoot
    rfoot rtoes
    lowerback upperback
    upperback thorax
    thorax lowerneck lclavicle rclavicle
    lowerneck upperneck
    upperneck head
    lclavicle lhumerus
    lhumerus lradius
    lradius lwrist
    lwrist lhand lthumb
    lhand lfingers
    rclavicle rhumerus
    rhumerus rradius
    rradius rwrist
    rwrist rhand rthumb
    rhand rfingers
  end

#!OML:ASF X:\für Bonn\!DataBase\2005_08_11_Bastian_Final\c3d\Bastian.ASF
:FULLY-SPECIFIED
:DEGREES
16
root 0.105294 16.8606 5.98962 173.244 -12.0024 -180.255
lowerback 15.5245 -2.77986 -1.32797
upperback 5.79505 -4.62925 -0.305158
thorax -2.46235 -2.62661 1.23733
lowerneck -11.7692 -6.00423 -4.25223
upperneck -4.32163 -8.22407 9.70833
head 1.30202 -4.20909 3.49719
rclavicle -2.36554e-014 1.59028e-015
rhumerus 71.5859 21.2692 9.89084
rradius 40.6074
rwrist -56.5008
rhand -45.5238 -8.34509
rfingers 7.12502
rthumb -18.2876 -37.5054
lclavicle -2.36554e-014 1.59028e-015
lhumerus 69.1919 -22.5325 -3.69332
lradius 30.7444
lwrist -0.104781
lhand -42.7266 13.4145
lfingers 7.12502
lthumb -15.595 42.8058
rfemur -9.46418 -10.0543 22.5988
rtibia 48.7704
rfoot -26.5706 -9.32919
rtoes 2.14753
lfemur -10.2504 0.331823 -19.1305
ltibia 45.1974
lfoot -18.4735 -10.2369
ltoes -12.6957
17
root 0.104126 16.7848 6.00184 173.01 -12.074 -180.182
lowerback 15.9179 -2.80757 -1.22421
upperback 5.81616 -4.6714 -0.283816
thorax -2.65336 -2.65125 1.23546
lowerneck -11.8551 -6.03002 -4.2904
upperneck -4.23545 -8.25001 9.65448
head 1.34637 -4.21585 3.48058
rclavicle -2.47984e-014 7.95139e-016
rhumerus 71.4897 21.3506 9.136
rradius 40.3673
rwrist -55.8152
rhand -45.3861 -8.20656
rfingers 7.12502
rthumb -18.1552 -37.3793
lclavicle -2.47984e-014 7.95139e-016
lhumerus 69.0113 -22.5448 -3.19801
lradius 30.5854
lwrist -0.588833
lhand -42.7591 13.3994
lfingers 7.12502
lthumb -15.6263 42.7883
rfemur -9.92041 -10.743 22.4775
rtibia 50.0415
rfoot -27.1098 -8.84789
rtoes 2.05499
lfemur -10.99 0.291908 -19.0341
ltibia 46.9174
lfoot -18.8817 -10.5376
ltoes -11.8613
18
root 0.101927 16.704 6.01458 172.774 -12.1069 -180.088
lowerback 16.3059 -2.82603 -1.07799
upperback 5.84759 -4.6959 -0.275174
thorax -2.83501 -2.6677 1.19314
lowerneck -11.9343 -6.05933 -4.31405
upperneck -4.1931 -8.28593 9.63723
head 1.37713 -4.23068 3.47393
rclavicle 5.34234e-014 -5.36719e-015
rhumerus 71.3189 21.3986 8.13962
rradius 40.051
rwrist -54.9949
rhand -45.1105 -7.98987
rfingers 7.12502
rthumb -17.89 -37.187
lclavicle 5.34234e-014 -5.36719e-015
lhumerus 68.9386 -22.5434 -3.0323
lradius 30.478
lwrist -0.815857
lhand -42.8139 13.3871
lfingers 7.12502
lthumb -15.6791 42.7719
rfemur -10.4143 -11.4884 22.3628
rtibia 51.3914
rfoot -27.7111 -8.31043
rtoes 1.73403
lfemur -11.7699 0.310421 -18.9081
ltibia 48.6924
lfoot -19.2433 -10.8618
ltoes -10.971
19
root 0.099771 16.6151 6.02751 172.536 -12.1148 -179.995
lowerback 16.7213 -2.84104 -0.949884
upperback 5.85422 -4.71441 -0.245688
thorax -3.0539 -2.67992 1.18489
lowerneck -11.953 -6.08535 -4.38644
upperneck -4.16024 -8.30812 9.61852
head 1.39564 -4.23819 3.47858
rclavicle 2.80783e-014 -3.37934e-015
rhumerus 71.1335 21.448 7.04908
rradius 39.7448
rwrist -54.1213
rhand -44.7873 -7.78157
rfingers 7.12502
rthumb -17.579 -37.0068
lclavicle 2.80783e-014 -3.37934e-015
lhumerus 68.9074 -22.595 -3.11972
lradius 30.4366
lwrist -0.825047
lhand -42.89 13.4029
lfingers 7.12502
lthumb -15.7524 42.7819
rfemur -10.9426 -12.2528 22.2297
rtibia 52.8176
rfoot -28.3817 -7.73751
rtoes 1.66178
lfemur -12.558 0.372715 -18.7833
ltibia 50.5212
lfoot -19.6424 -11.1498
ltoes -10.5152
